<svg width="515" height="160" xmlns="http://www.w3.org/2000/svg">
 <!-- Created with SVG-edit - http://svg-edit.googlecode.com/ -->
 <g>
  <title>Streamlined TeX'n</title>
  <path id="svg_1" d="m211.448944,54.990391c0,7.271236 -27.310913,13.166477 -61.00032,13.166477m61.00032,-13.166477l0,0c0,7.271236 -27.310913,13.166477 -61.00032,13.166477c-33.688194,0 -60.998634,-5.894638 -60.998634,-13.166477m0,0l0,0c0,-7.271839 27.31044,-13.167061 60.998634,-13.167061c33.689407,0 61.00032,5.895222 61.00032,13.167061l0,52.665882c0,7.271797 -27.310913,13.167061 -61.00032,13.167061c-33.688194,0 -60.998634,-5.895241 -60.998634,-13.167061l0,-52.665882z" stroke-linecap="null" stroke-linejoin="null" stroke-dasharray="null" stroke-width="3" fill="#FFFFFF" stroke="#5e5f5c"/>
  <path id="svg_4" d="m385.183929,34.601589c-8.366302,-7.721279 -17.390839,-13.912338 -24.790894,-14.74692c-0.402466,-0.055689 -0.819916,-0.08386 -1.266144,-0.097609l-48.710785,0c-0.775818,0 -1.544312,0.292189 -2.093292,0.820799c-0.541809,0.51491 -0.863678,1.25186 -0.863678,1.98946l0,117.393282c0,0.737793 0.307373,1.447235 0.863678,1.975677c0.563599,0.528809 1.30307,0.820801 2.093292,0.820801l88.088989,0c0.775848,0 1.522583,-0.278503 2.085999,-0.820801c0.556244,-0.528442 0.870911,-1.237885 0.870911,-1.975677l0,-78.118263c-0.175446,-9.071007 -7.648621,-18.948849 -16.278046,-27.240749l-0.000061,0l0.000031,0zm10.356934,102.534977l-82.175079,0l0,-111.772766l45.768311,0l0,0.013781c1.998199,-0.11137 3.718201,1.752909 5.035828,6.03838c1.200226,4.075739 1.500244,9.405001 1.500244,13.091608c0.007538,2.698883 -0.131744,4.521362 -0.131744,4.521362l-0.234009,2.96344l3.147308,0.04166c0.014404,0 7.268188,0.08337 14.389709,1.613708c6.836517,1.405029 12.18692,4.201511 12.684631,7.374161c0.022064,0.277771 0.022064,0.555939 0.022064,0.82048l0,75.294186l-0.007294,0l0.000031,0z" stroke-linecap="null" stroke-linejoin="null" stroke-dasharray="null" stroke-width="3" fill="#FFFFFF" stroke="#5e5f5c"/>
  <text fill="#5e5f5c" stroke="#5e5f5c" stroke-width="0" x="49" y="80" id="svg_2" text-anchor="middle" xml:space="preserve" font-weight="bold" font-size="16">Data</text>
  <text fill="#5e5f5c" stroke="#5e5f5c" stroke-width="0" x="450" y="80" font-size="16" text-anchor="middle" xml:space="preserve" id="svg_8" font-weight="bold">Report</text>
  <path d="m363.419739,70.288887l0,29.044464l10.272644,0l0,-29.044464l-10.272644,0zm-14.218018,29.044464l10.272675,0l0,-35.333344l-10.272675,0l0,35.333344zm-14.227478,0l10.272644,0l0,-22.753304l-10.272644,0l0,22.753304z" stroke-linecap="null" stroke-linejoin="null" stroke-dasharray="null" stroke-width="3" fill="#FFFFFF" id="svg_9" stroke="#5e5f5c"/>
  <path fill="#FFFFFF" stroke-width="3" stroke-dasharray="null" stroke-linejoin="null" stroke-linecap="null" d="m247.621765,81.390556l12.999878,-17.937107l13.000122,17.937107l-6.5,0l0,18.022964l-13,0l0,-18.022964l-6.5,0z" id="svg_15" transform="rotate(90 260.622 81.4335)" stroke="#5e5f5c"/>
 </g>
</svg>