<svg width="515" height="300" xmlns="http://www.w3.org/2000/svg">
 <!-- Created with SVG-edit - http://svg-edit.googlecode.com/ -->
 <g>
  <title>Clunky Process of Making and Compiling Reports</title>
  <path id="svg_1" d="m207.448944,45.990391c0,7.27124 -27.310913,13.166481 -61.00032,13.166481m61.00032,-13.166481l0,0c0,7.27124 -27.310913,13.166481 -61.00032,13.166481c-33.688194,0 -60.998634,-5.89463 -60.998634,-13.166481m0,0l0,0c0,-7.271839 27.31044,-13.167061 60.998634,-13.167061c33.689407,0 61.00032,5.895222 61.00032,13.167061l0,52.665882c0,7.271797 -27.310913,13.167061 -61.00032,13.167061c-33.688194,0 -60.998634,-5.895241 -60.998634,-13.167061l0,-52.665882z" stroke-linecap="null" stroke-linejoin="null" stroke-dasharray="null" stroke-width="3" fill="steelblue" stroke="#5e5f5c"/>
  <path id="svg_4" d="m178.183929,176.601593c-8.366318,-7.721283 -17.390839,-13.912338 -24.790894,-14.746918c-0.402466,-0.055695 -0.819916,-0.083862 -1.266159,-0.09761l-48.710777,0c-0.775803,0 -1.544296,0.292191 -2.093323,0.820801c-0.541756,0.514908 -0.86364,1.251862 -0.86364,1.989456l0,117.39328c0,0.737793 0.307381,1.447235 0.86364,1.975677c0.563492,0.528809 1.303024,0.820801 2.093323,0.820801l88.088997,0c0.775757,0 1.522568,-0.278503 2.085999,-0.820801c0.556229,-0.528442 0.870911,-1.237885 0.870911,-1.975677l0,-78.118256c-0.17543,-9.071014 -7.648743,-18.948853 -16.278061,-27.240753l-0.000031,0l0.000015,0zm10.356934,102.534973l-82.175079,0l0,-111.772766l45.768311,0l0,0.013779c1.998199,-0.111374 3.718216,1.752914 5.035843,6.038376c1.200226,4.075745 1.500229,9.404999 1.500229,13.091614c0.007538,2.698883 -0.131729,4.521362 -0.131729,4.521362l-0.234039,2.96344l3.147308,0.041656c0.01442,0 7.268219,0.083374 14.389709,1.613708c6.836517,1.405029 12.186951,4.201508 12.684631,7.374161c0.022079,0.277771 0.022079,0.555939 0.022079,0.82048l0,75.294189l-0.007294,0l0.000031,0z" stroke-linecap="null" stroke-linejoin="null" stroke-dasharray="null" stroke-width="3" fill="steelblue" stroke="#5e5f5c"/>
  <path id="svg_5" d="m397.43222,42.045502l0,75.625107l26.545502,0l0,-75.625107l-26.545502,0zm-36.740784,75.625107l26.545593,0l0,-91.999989l-26.545593,0l0,91.999989zm-36.765198,0l26.545563,0l0,-59.244408l-26.545563,0l0,59.244408z" stroke-linecap="null" stroke-linejoin="null" stroke-dasharray="null" stroke-width="3" fill="steelblue" stroke="#5e5f5c"/>
  <path id="svg_7" d="m311.035095,221.912598l0,0l0,0l0,0zm0,0l24.364044,23.067596l-24.364044,23.089813l8.962891,8.495178l33.302643,-31.584991l-33.302643,-31.562057l-8.962891,8.494476l0,-0.000015zm43.166138,54.066772l60.833862,0l0,-11.984894l-60.833862,0l0,11.984894zm18.285767,-24.994568l42.548096,0l0,-11.986481l-42.548096,0l0,11.986481zm-18.285767,-36.980423l0,11.983994l60.833862,0l0,-11.983994l-60.833862,0z" stroke-linecap="null" stroke-linejoin="null" stroke-dasharray="null" stroke-width="3" fill="steelblue" stroke="#5e5f5c"/>
  <path stroke="#5e5f5c" id="svg_10" transform="rotate(103.407 379.221 166.327)" d="m386.78476,153.211929l0.417175,3.455185l-4.901825,0.601639c-12.412567,1.521439 -24.579193,7.976669 -31.353058,16.63295c-1.214905,1.552948 -2.028351,3.049194 -1.807953,3.32515c0.50769,0.632782 12.866943,5.669022 13.912506,5.669022c0.426392,0 1.449799,-0.92627 2.27533,-2.058563c3.52124,-4.828033 12.6315,-9.864197 19.046112,-10.526703l2.600708,-0.269348l-0.44751,2.986237c-0.464478,3.09964 -0.333618,3.750488 0.75293,3.750488c0.694061,0 21.422729,-11.904022 22.015717,-12.642838c0.448761,-0.560883 -2.402405,-2.640503 -12.609772,-9.198441c-4.433105,-2.848312 -8.568756,-5.179459 -9.18924,-5.179459c-0.99173,0 -1.077087,0.41362 -0.710938,3.454681l0,0l-0.000031,0l-0.000031,0l-0.000031,0l-0.000031,0l-0.000031,0l-0.000031,0z" stroke-linecap="null" stroke-linejoin="null" stroke-dasharray="null" stroke-width="3" fill="#FFFFFF"/>
  <path id="svg_11" stroke="#5e5f5c" transform="rotate(17.7787 269.519 60.805)" d="m277.08252,47.69038l0.417175,3.455189l-4.901794,0.601643c-12.412598,1.521439 -24.579178,7.976669 -31.353058,16.632946c-1.21489,1.552963 -2.028336,3.049194 -1.807938,3.325165c0.50769,0.63279 12.866928,5.669006 13.91246,5.669006c0.426422,0 1.449661,-0.92627 2.275238,-2.058556c3.521271,-4.828041 12.631592,-9.864204 19.046234,-10.526711l2.600525,-0.269341l-0.447327,2.986229c-0.464478,3.09964 -0.333618,3.750488 0.752747,3.750488c0.694244,0 21.422729,-11.904011 22.015686,-12.642849c0.448792,-0.56089 -2.402313,-2.640511 -12.609741,-9.198429c-4.433105,-2.848312 -8.568787,-5.179462 -9.18924,-5.179462c-0.99173,0 -1.077118,0.41362 -0.710938,3.454681l0,0l-0.000031,0z" stroke-linecap="null" stroke-linejoin="null" stroke-dasharray="null" stroke-width="3" fill="#FFFFFF"/>
  <path id="svg_12" stroke="#5e5f5c" transform="rotate(-167.688 257.519 245.805)" d="m265.08252,232.690369l0.417175,3.4552l-4.901794,0.601624c-12.412598,1.521454 -24.579178,7.976685 -31.353058,16.632965c-1.21489,1.552948 -2.028336,3.049194 -1.807938,3.325165c0.50769,0.632782 12.866928,5.669006 13.91246,5.669006c0.426422,0 1.449661,-0.92627 2.275238,-2.058563c3.52124,-4.828018 12.631592,-9.864197 19.046234,-10.526703l2.600525,-0.269348l-0.447327,2.986282c-0.464478,3.099609 -0.333618,3.750443 0.752747,3.750443c0.694244,0 21.422729,-11.903992 22.015686,-12.642822c0.448792,-0.560883 -2.402313,-2.640503 -12.609741,-9.198441c-4.433105,-2.848343 -8.568787,-5.179443 -9.18924,-5.179443c-0.99173,0 -1.077118,0.413589 -0.710938,3.454651l0,0l-0.000031,-0.000015z" stroke-linecap="null" stroke-linejoin="null" stroke-dasharray="null" stroke-width="3" fill="#FFFFFF"/>
  <text fill="#5e5f5c" stroke="#5e5f5c" stroke-width="0" x="46" y="80" id="svg_2" text-anchor="middle" xml:space="preserve" font-weight="bold" font-size="16" >Data</text>
  <text fill="#5e5f5c" stroke-width="0" x="483" y="89" id="svg_3" text-anchor="middle" xml:space="preserve" stroke="#5e5f5c" font-weight="bold" font-size="16" >Analysis</text>
  <text fill="#5e5f5c" stroke="#5e5f5c" stroke-width="0" x="489" y="240" id="svg_6" font-weight="bold" font-size="16" text-anchor="middle" xml:space="preserve"><tspan x="475"> LaTeX </tspan> <tspan x="475" dy="1.2em"> Source </tspan></text>
  <text fill="#5e5f5c" stroke="#5e5f5c" stroke-width="0" x="46" y="250" font-size="16" text-anchor="middle" xml:space="preserve" id="svg_8" font-weight="bold" >Report</text>
  <path d="m156.419724,212.288895l0,29.044449l10.272659,0l0,-29.044449l-10.272659,0zm-14.218018,29.044449l10.27269,0l0,-35.333328l-10.27269,0l0,35.333328zm-14.227463,0l10.272644,0l0,-22.753296l-10.272644,0l0,22.753296z" stroke-linecap="null" stroke-linejoin="null" stroke-dasharray="null" stroke-width="3" fill="steelblue" id="svg_9" stroke="#5e5f5c"/>
 </g>
</svg>